<?xml version="1.0" encoding="UTF-8"?>
<svg width="153px" height="64px" viewBox="0 0 153 64" version="1.1" xmlns="http://www.w3.org/2000/svg" xmlns:xlink="http://www.w3.org/1999/xlink">
    <title>Vertical logo</title>
    <g id="Symbols" stroke="none" stroke-width="1" fill="none" fill-rule="evenodd">
        <g id="header-default" transform="translate(-94.000000, -11.000000)">
            <g id="FCA-logo" transform="translate(94.000000, 11.000000)">
                <g id="Group">
                    <path d="M145.317121,21.7208627 C138.513949,23.799317 131.206101,23.6938373 124.505885,21.2546202 C121.317924,20.0940634 118.559457,17.8391551 115.32605,16.8780558 C112.669415,16.0880805 110.17577,16.8805806 107.825196,18.1600826 C105.848851,19.2356385 103.056159,21.6159441 100.644148,20.8088564 C97.643863,19.8051164 97.3709057,14.8240078 95.3679102,12.6482093 C93.4614175,10.5773293 90.557635,10.1503611 87.9301761,10.8623488 C84.7514727,11.7238596 82.4870217,13.9692298 80.4464349,16.4423912 C78.1278413,19.2527509 75.8081256,22.7223584 71.8966736,23.2797735 C67.0389886,23.9721241 66.4913909,18.3864711 64.7905279,15.2088963 C63.6554971,13.0886429 61.6928981,10.9235046 59.1453907,10.7094594 C55.729077,10.4227567 52.8777539,14.1254856 50.5720648,16.146431 C49.0538278,17.4772701 47.5830007,19.0120552 45.9040191,20.140351 C43.9762061,21.4355627 42.6563049,20.67869 41.7897428,18.7621021 C40.5921535,16.1141699 40.2243766,12.994104 37.9273839,10.9779276 C33.5269654,7.11529612 26.8250657,9.88441773 23.4665415,13.7128244 C20.5251678,17.0657311 18.9337121,21.4459423 15.8360823,24.6574613 C13.6681341,26.9050758 9.95838438,29.1016336 6.7794004,27.702906 C3.11397464,26.0898527 2.66652676,21.6535352 3.05646567,18.150264 C3.38552922,15.1957114 4.54272203,12.7517252 5.41545581,9.96885756 C5.53355961,9.59322654 5.64156427,9.18842029 5.52738791,8.81054502 C5.03589657,7.18430674 3.10135072,8.28034141 2.5683407,9.16261144 C-1.04294246,15.1435326 -1.58661268,28.2131919 5.83344788,30.2700453 C8.72208166,31.0706808 13.1143648,30.1238886 14.7153585,29.0430026 C17.6045534,27.092751 19.6367242,24.4703471 21.4411034,21.5505804 C23.4550397,18.2919321 25.4176387,14.4559511 29.0625857,12.777534 C32.0289267,11.4116286 35.7058542,11.4758702 37.3278879,14.70366 C38.598696,17.2334886 38.8205965,20.6486732 41.1282493,22.5554425 C43.8881191,24.8364401 46.9809799,22.9350009 49.2395397,20.9667953 C50.8413751,19.5705925 52.4353556,18.1656932 54.0332636,16.7650018 C55.4928694,15.4854999 57.4941818,12.8316765 59.6545556,13.6541935 C63.0529152,14.9480025 63.366269,20.0904165 65.1223968,22.7467646 C66.9259344,25.4740871 69.9598835,26.604066 73.1225967,25.8393385 C76.4482987,25.0353366 78.8462827,22.7209557 80.9637351,20.163074 C83.3406793,17.291278 85.8172122,13.5374926 89.9351354,13.2782819 C94.2631768,13.0058863 94.6879016,17.7499462 96.4375771,20.5967749 C97.852859,22.899654 100.294325,24.1381984 102.979013,23.5527302 C106.047467,22.8833832 108.37616,20.5176652 111.331841,19.5776058 C115.185503,18.3522463 119.058522,22.0288857 122.479886,23.4183558 C129.841035,26.4079748 138.196668,26.7462952 145.783925,24.428548 C147.455894,23.917701 147.004518,21.2052467 145.317121,21.7208627" id="Fill-1" fill="#0D0D0C"></path>
                    <path d="M6.34726954,1.48689022 C3.06673312,1.3682256 2.87681324,6.4665962 6.16267975,6.58526082 C9.4434967,6.70420597 9.63341658,1.60583537 6.34726954,1.48689022" id="Fill-3" fill="#A1896B"></path>
                    <path d="M32.8358758,0.00203957863 C29.5553394,-0.116625039 29.365139,4.98174556 32.651286,5.10041018 C35.9318224,5.21935533 36.1217423,0.120984727 32.8358758,0.00203957863" id="Fill-5" fill="#457258"></path>
                    <path d="M59.7463455,3.42101128 C56.4658091,3.30234666 56.2758892,8.40071726 59.5620362,8.51938188 C62.8425727,8.6380465 63.0324925,3.53995643 59.7463455,3.42101128" id="Fill-7" fill="#3C6E7F"></path>
                    <path d="M90.2011354,2.756798 C86.920599,2.63813339 86.7306791,7.73650399 90.0168262,7.85544914 C93.2970821,7.97411375 93.487002,2.87574315 90.2011354,2.756798" id="Fill-9" fill="#D0D28F"></path>
                    <path d="M112.652443,9.274908 C109.371907,9.15624338 109.181987,14.254614 112.467854,14.3732786 C115.74867,14.4922237 115.93831,9.39385315 112.652443,9.274908" id="Fill-11" fill="#7DB6AE"></path>
                    <path d="M150.627752,18.5283076 C147.347216,18.409643 147.157296,23.5080136 150.443443,23.6266782 C153.723699,23.7456233 153.913899,18.6472527 150.627752,18.5283076" id="Fill-13" fill="#D56C2E"></path>
                </g>
                <polygon id="Fill-15" fill="#0D0D0C" points="1.80383601 55.4481524 7.28261796 55.4481524 7.28261796 56.8522101 3.2539038 56.8522101 3.2539038 58.9584369 7.05230153 58.9584369 7.05230153 60.3509929 3.2539038 60.3509929 3.2539038 63.8500562 1.80383601 63.8500562"></polygon>
                <path d="M11.1039912,55.4481524 L12.6808593,55.4481524 L15.6620685,63.8500562 L14.0619163,63.8500562 L13.3830299,61.9051347 L10.4018207,61.9051347 L9.72265368,63.8500562 L8.12278202,63.8500562 L11.1039912,55.4481524 Z M12.9801865,60.5468035 L11.8866744,57.4275792 L10.8158853,60.5468035 L12.9801865,60.5468035 Z" id="Fill-17" fill="#0D0D0C"></path>
                <polygon id="Fill-19" fill="#0D0D0C" points="16.9277429 63.8501123 16.9277429 55.4482085 18.4353196 55.4482085 21.4050271 60.5123543 24.3632327 55.4482085 25.87109 55.4482085 25.87109 63.8501123 24.4204611 63.8501123 24.4204611 57.9107097 21.8078704 62.3652616 20.9904014 62.3652616 18.3893125 57.9107097 18.3893125 63.8501123"></polygon>
                <polygon id="Fill-21" fill="#0D0D0C" points="27.8853068 63.8503367 29.3468764 63.8503367 29.3468764 55.4481524 27.8853068 55.4481524"></polygon>
                <polygon id="Fill-23" fill="#0D0D0C" points="36.8400154 63.8501123 31.3612335 63.8501123 31.3612335 55.4482085 32.822803 55.4482085 32.822803 62.4000475 36.8400154 62.4000475"></polygon>
                <polygon id="Fill-24" fill="#0D0D0C" points="39.1303034 55.4481524 41.0987935 58.7396227 43.0670032 55.4481524 44.7241033 55.4481524 41.8239677 60.3397716 41.8239677 63.8500562 40.3738999 63.8500562 40.3738999 60.3397716 37.4732033 55.4481524"></polygon>
                <path d="M50.3179873,56.5872486 C51.1618264,55.7434113 52.1866083,55.3209316 53.3912109,55.3209316 C54.0661699,55.3209316 54.7012934,55.4673688 55.2960204,55.7585599 C55.8904668,56.0500317 56.3875688,56.4528742 56.7867653,56.9673681 L55.589737,57.8538461 C55.0065118,57.1553239 54.2734828,56.8060627 53.3912109,56.8060627 C52.6006729,56.8060627 51.9257139,57.0826663 51.3652118,57.6344708 C50.8049902,58.1871169 50.5250197,58.8589887 50.5250197,59.648964 C50.5250197,60.4473553 50.8049902,61.1245571 51.3652118,61.6802891 C51.9257139,62.2374237 52.6006729,62.5154299 53.3912109,62.5154299 C53.8285597,62.5154299 54.2409411,62.4192078 54.6283552,62.227044 C55.0157693,62.0354413 55.3366975,61.7745475 55.589737,61.444643 L56.8787796,62.227044 C56.4795832,62.7796901 55.9751874,63.213391 55.3653117,63.5278663 C54.7551555,63.8423416 54.0973089,64 53.3912109,64 C52.1866083,64 51.1601432,63.5755566 50.3120962,62.7280724 C49.4643297,61.8803077 49.0404465,60.8538447 49.0404465,59.648964 C49.0404465,58.4519382 49.4662934,57.4316469 50.3179873,56.5872486" id="Fill-25" fill="#0D0D0C"></path>
                <path d="M60.6423353,55.4481524 L62.2192034,55.4481524 L65.2004126,63.8500562 L63.6002604,63.8500562 L62.921374,61.9051347 L59.9401648,61.9051347 L59.2609978,63.8500562 L57.6611261,63.8500562 L60.6423353,55.4481524 Z M62.5185306,60.5468035 L61.4250185,57.4275792 L60.3542294,60.5468035 L62.5185306,60.5468035 Z" id="Fill-26" fill="#0D0D0C"></path>
                <path d="M69.6776968,55.4481524 C70.5448199,55.4481524 71.2447463,55.7070825 71.7783173,56.2252233 C72.3116079,56.742803 72.5783934,57.3815721 72.5783934,58.1412501 C72.5783934,58.7093254 72.415124,59.2159644 72.0891463,59.6606061 C71.7628881,60.1058088 71.3314305,60.4087823 70.7942125,60.5700876 L72.7276362,63.8500562 L71.0590343,63.8500562 L69.3208606,60.8464106 L67.9280213,60.8464106 L67.9280213,63.8500562 L66.4664517,63.8500562 L66.4664517,55.4481524 L69.6776968,55.4481524 Z M69.6544127,59.4187883 C70.0841871,59.4187883 70.4314852,59.2964768 70.696307,59.0507316 C70.9611288,58.8049865 71.0932592,58.5022935 71.0932592,58.1412501 C71.0932592,57.7886226 70.9611288,57.488735 70.696307,57.2435509 C70.4314852,56.9978057 70.0841871,56.8752136 69.6544127,56.8752136 L67.9280213,56.8752136 L67.9280213,59.4187883 L69.6544127,59.4187883 Z" id="Fill-27" fill="#0D0D0C"></path>
                <polygon id="Fill-28" fill="#0D0D0C" points="74.109086 55.4481524 79.3575515 55.4481524 79.3575515 56.7831995 75.5591538 56.7831995 75.5591538 58.8897068 79.1272351 58.8897068 79.1272351 60.2129716 75.5591538 60.2129716 75.5591538 62.4459985 79.4725695 62.4459985 79.4725695 63.8500562 74.109086 63.8500562"></polygon>
                <path d="M86.7701219,55.4481524 L88.3467094,55.4481524 L91.3281992,63.8500562 L89.728047,63.8500562 L89.0491605,61.9051347 L86.0679513,61.9051347 L85.3887843,63.8500562 L83.7889127,63.8500562 L86.7701219,55.4481524 Z M88.6460366,60.5468035 L87.5525245,57.4275792 L86.4820159,60.5468035 L88.6460366,60.5468035 Z" id="Fill-29" fill="#0D0D0C"></path>
                <path d="M93.9403691,55.4481524 L93.9403691,60.6506 C93.9403691,61.2492532 94.1075659,61.7132515 94.4408374,62.0434365 C94.7752311,62.3733409 95.2066887,62.5377321 95.7357712,62.5377321 C96.2654149,62.5377321 96.7047274,62.3733409 97.0539892,62.0434365 C97.403251,61.7132515 97.5774611,61.2492532 97.5774611,60.6506 L97.5774611,55.4481524 L99.0395918,55.4481524 L99.0395918,60.6506 C99.0395918,61.6560231 98.7282017,62.4653551 98.1073853,63.079157 C97.4857273,63.6932393 96.7030442,63.9998597 95.7587748,63.9998597 C94.8150666,63.9998597 94.0323834,63.6932393 93.4107254,63.079157 C92.7893479,62.4653551 92.4787995,61.6560231 92.4787995,60.6506 L92.4787995,55.4481524 L93.9403691,55.4481524 Z" id="Fill-30" fill="#0D0D0C"></path>
                <polygon id="Fill-31" fill="#0D0D0C" points="100.305771 55.4481524 106.681974 55.4481524 106.681974 56.8522101 104.230128 56.8522101 104.230128 63.8500562 102.768277 63.8500562 102.768277 56.8522101 100.305771 56.8522101"></polygon>
                <polygon id="Fill-32" fill="#0D0D0C" points="108.063115 55.4481524 109.524965 55.4481524 109.524965 58.9469352 113.231068 58.9469352 113.231068 55.4481524 114.681416 55.4481524 114.681416 63.8500562 113.231068 63.8500562 113.231068 60.4087823 109.524965 60.4087823 109.524965 63.8500562 108.063115 63.8500562"></polygon>
                <path d="M117.628036,56.5872486 C118.471875,55.7434113 119.496096,55.3209316 120.700979,55.3209316 C121.890152,55.3209316 122.909043,55.7450945 123.75709,56.5931397 C124.604856,57.441185 125.02874,58.4600736 125.02874,59.648964 C125.02874,60.8538447 124.604856,61.8803077 123.75709,62.7280724 C122.909043,63.5755566 121.890152,64 120.700979,64 C119.496096,64 118.469631,63.5755566 117.622145,62.7280724 C116.774098,61.8803077 116.350214,60.8538447 116.350214,59.648964 C116.350214,58.4519382 116.776342,57.4316469 117.628036,56.5872486 M117.834788,59.648964 C117.834788,60.4473553 118.114758,61.1245571 118.67498,61.6802891 C119.235201,62.2374237 119.910721,62.5154299 120.700979,62.5154299 C121.483942,62.5154299 122.151047,62.2374237 122.703974,61.6802891 C123.25606,61.1245571 123.532665,60.4473553 123.532665,59.648964 C123.532665,58.8589887 123.254658,58.1871169 122.697803,57.6344708 C122.141789,57.0826663 121.476368,56.8060627 120.700979,56.8060627 C119.910721,56.8060627 119.235201,57.0826663 118.67498,57.6344708 C118.114758,58.1871169 117.834788,58.8589887 117.834788,59.648964" id="Fill-33" fill="#0D0D0C"></path>
                <path d="M129.908979,55.4481524 C130.776103,55.4481524 131.476029,55.7070825 132.0096,56.2252233 C132.54289,56.742803 132.809676,57.3815721 132.809676,58.1412501 C132.809676,58.7093254 132.646126,59.2159644 132.320429,59.6606061 C131.994171,60.1058088 131.562713,60.4087823 131.025495,60.5700876 L132.958919,63.8500562 L131.290317,63.8500562 L129.552143,60.8464106 L128.159304,60.8464106 L128.159304,63.8500562 L126.697734,63.8500562 L126.697734,55.4481524 L129.908979,55.4481524 Z M129.885695,59.4187883 C130.31547,59.4187883 130.662768,59.2964768 130.92759,59.0507316 C131.192411,58.8049865 131.324542,58.5022935 131.324542,58.1412501 C131.324542,57.7886226 131.192411,57.488735 130.92759,57.2435509 C130.662768,56.9978057 130.31547,56.8752136 129.885695,56.8752136 L128.159304,56.8752136 L128.159304,59.4187883 L129.885695,59.4187883 Z" id="Fill-34" fill="#0D0D0C"></path>
                <polygon id="Fill-35" fill="#0D0D0C" points="134.340312 63.8503367 135.801882 63.8503367 135.801882 55.4481524 134.340312 55.4481524"></polygon>
                <polygon id="Fill-36" fill="#0D0D0C" points="137.183079 55.4481524 143.559282 55.4481524 143.559282 56.8522101 141.107997 56.8522101 141.107997 63.8500562 139.645866 63.8500562 139.645866 56.8522101 137.183079 56.8522101"></polygon>
                <polygon id="Fill-37" fill="#0D0D0C" points="145.849963 55.4481524 147.818453 58.7396227 149.786662 55.4481524 151.443482 55.4481524 148.543627 60.3397716 148.543627 63.8500562 147.093279 63.8500562 147.093279 60.3397716 144.192582 55.4481524"></polygon>
                <path d="M2.24121281,41.6665054 C2.81461938,41.0931 3.50584922,40.8061168 4.31546339,40.8061168 L7.14350235,40.8061168 L7.14350235,44.2942394 C7.14350235,44.9857483 7.41842331,45.331082 7.96826522,45.331082 L8.32173503,45.331082 L8.32173503,46.6983901 L7.96826522,46.6983901 C7.19063166,46.6983901 6.65257207,46.3645582 6.35380592,45.6966139 C5.87465797,46.3645582 5.19492992,46.6983901 4.31546339,46.6983901 C3.4977138,46.6983901 2.80283706,46.4116874 2.22943049,45.8382821 C1.65602391,45.2645961 1.3690401,44.5733677 1.3690401,43.7643163 C1.3690401,42.9471295 1.65967083,42.2480462 2.24121281,41.6665054 M2.6771589,39.4396502 C2.6771589,39.2270077 2.75374403,39.0446626 2.90719481,38.8912121 C3.06008452,38.7383227 3.24299112,38.6614572 3.45479247,38.6614572 C3.67472924,38.6614572 3.86128274,38.7383227 4.01473352,38.8912121 C4.16790377,39.0446626 4.24476943,39.2270077 4.24476943,39.4396502 C4.24476943,39.659306 4.16790377,39.8441759 4.01473352,39.9931379 C3.86128274,40.1423804 3.67472924,40.2170017 3.45479247,40.2170017 C3.24299112,40.2170017 3.06008452,40.1423804 2.90719481,39.9931379 C2.75374403,39.8441759 2.6771589,39.659306 2.6771589,39.4396502 M2.74785286,43.7522535 C2.74785286,44.1842712 2.90130364,44.5554137 3.20764414,44.8659616 C3.5137041,45.1762289 3.88316421,45.331082 4.31546339,45.331082 C4.73121121,45.331082 5.07710666,45.1860475 5.35230815,44.8954173 C5.6272291,44.6047872 5.76468958,44.2235456 5.76468958,43.7522535 L5.76468958,42.1731444 L4.31546339,42.1731444 C3.88316421,42.1731444 3.5137041,42.328278 3.20764414,42.6388259 C2.90130364,42.9488126 2.74785286,43.3205162 2.74785286,43.7522535 M4.7746936,39.4396502 C4.7746936,39.2270077 4.849315,39.0446626 4.99883834,38.8912121 C5.14780062,38.7383227 5.33267093,38.6614572 5.5526077,38.6614572 C5.76468958,38.6614572 5.94703512,38.7383227 6.1004859,38.8912121 C6.25365614,39.0446626 6.33024127,39.2270077 6.33024127,39.4396502 C6.33024127,39.659306 6.25365614,39.8441759 6.1004859,39.9931379 C5.94703512,40.1423804 5.76468958,40.2170017 5.5526077,40.2170017 C5.33267093,40.2170017 5.14780062,40.1423804 4.99883834,39.9931379 C4.849315,39.8441759 4.7746936,39.659306 4.7746936,39.4396502" id="Fill-38" fill="#0D0D0C"></path>
                <polygon id="Fill-39" fill="#0D0D0C" points="8.08594823 46.6981096 12.79944 46.6981096 12.79944 45.3313625 8.08594823 45.3313625"></polygon>
                <polygon id="Fill-40" fill="#0D0D0C" points="12.5637935 46.6981096 17.2772852 46.6981096 17.2772852 45.3313625 12.5637935 45.3313625"></polygon>
                <polygon id="Fill-41" fill="#0D0D0C" points="17.0419192 46.6981096 21.755411 46.6981096 21.755411 45.3313625 17.0419192 45.3313625"></polygon>
                <polygon id="Fill-42" fill="#0D0D0C" points="21.5194839 46.6981096 26.2329757 46.6981096 26.2329757 45.3313625 21.5194839 45.3313625"></polygon>
                <path d="M25.9973572,45.3312223 L26.7632085,45.3312223 C27.0378489,45.3312223 27.2479671,45.2389276 27.3938435,45.0543381 C27.5385978,44.8700293 27.611536,44.6164292 27.611536,44.2940991 L27.611536,40.8059765 L28.9903488,40.8059765 L28.9903488,44.2940991 C28.9903488,45.0097337 28.7858412,45.5887497 28.3773873,46.0322693 C27.9692138,46.4763498 27.4308737,46.6982499 26.7632085,46.6982499 L25.9973572,46.6982499 L25.9973572,45.3312223 Z M26.4686503,48.3598351 C26.4686503,48.1477536 26.5432717,47.9651279 26.6925145,47.8116775 C26.8414768,47.6587881 27.0260666,47.5819226 27.2462839,47.5819226 C27.4505109,47.5819226 27.6308927,47.6587881 27.7885514,47.8116775 C27.9456491,47.9651279 28.0239174,48.1477536 28.0239174,48.3598351 C28.0239174,48.5719165 27.9456491,48.7565059 27.7885514,48.9136033 C27.6308927,49.0707006 27.4505109,49.1492493 27.2462839,49.1492493 C27.034202,49.1492493 26.8515759,49.0707006 26.6984057,48.9136033 C26.5449549,48.7565059 26.4686503,48.5719165 26.4686503,48.3598351 L26.4686503,48.3598351 Z M28.7897687,47.8175686 C28.9390115,47.6604712 29.1196738,47.5819226 29.3320363,47.5819226 C29.5443987,47.5819226 29.7287079,47.6587881 29.8860861,47.8116775 C30.0431838,47.9651279 30.1214521,48.1477536 30.1214521,48.3598351 C30.1214521,48.5719165 30.0431838,48.7565059 29.8860861,48.9136033 C29.7287079,49.0707006 29.5443987,49.1492493 29.3320363,49.1492493 C29.1196738,49.1492493 28.9373283,49.0707006 28.7838775,48.9136033 C28.6309878,48.7565059 28.5544027,48.5719165 28.5544027,48.3598351 C28.5544027,48.1477536 28.632671,47.9670916 28.7897687,47.8175686 L28.7897687,47.8175686 Z" id="Fill-43" fill="#0D0D0C"></path>
                <path d="M30.9113169,47.9828294 C31.0759889,48.037533 31.2294397,48.0653055 31.3708276,48.0653055 C32.1406063,48.0653055 32.5254957,47.6094427 32.5254957,46.6982779 L32.5254957,40.8060046 L33.9043084,40.7942223 L33.9043084,45.3312503 L35.0825411,45.3312503 L35.0825411,46.6982779 L33.9043084,46.6982779 L33.9043084,46.9810532 C33.9043084,47.7037011 33.7000814,48.2888888 33.2913469,48.7368968 C32.8831734,49.1846243 32.2547827,49.4087686 31.4061746,49.4087686 C31.0919792,49.4087686 30.8013485,49.3613588 30.5342824,49.2671004 L30.9113169,47.9828294 Z" id="Fill-44" fill="#0D0D0C"></path>
                <path d="M34.8472593,46.6982499 L34.8472593,45.3312223 L35.2007291,45.3312223 C35.4675146,45.3312223 35.6720221,45.2389276 35.8131295,45.0543381 C35.954798,44.8700293 36.0254919,44.6164292 36.0254919,44.2940991 L36.0254919,40.8059765 L37.3925224,40.8059765 L37.3925224,44.1647743 C37.3925224,44.5260983 37.482573,44.8111178 37.6637964,45.0189912 C37.8441782,45.2271452 38.0719699,45.3312223 38.3468908,45.3312223 C38.6296667,45.3312223 38.8597026,45.2293895 39.036157,45.0248824 C39.2131724,44.8206558 39.3012593,44.5339531 39.3012593,44.1647743 L39.3012593,40.8059765 L40.6800721,40.8059765 L40.6800721,44.1647743 C40.6800721,44.5260983 40.7704033,44.8111178 40.9513461,45.0189912 C41.1320085,45.2271452 41.3595196,45.3312223 41.6347211,45.3312223 C41.909642,45.3312223 42.1374337,45.2271452 42.3183766,45.0189912 C42.4987584,44.8111178 42.5890896,44.5260983 42.5890896,44.1647743 L42.5890896,40.8059765 L43.9679023,40.8059765 L43.9679023,44.1647743 C43.9600474,44.9188417 43.7342195,45.5298382 43.290138,45.9972029 C42.8466176,46.4645675 42.2948119,46.6982499 41.6347211,46.6982499 C40.9042168,46.6982499 40.3580218,46.4036923 39.9966971,45.8145772 C39.6275176,46.4036923 39.0776756,46.6982499 38.3468908,46.6982499 C37.655661,46.6982499 37.1173209,46.4272569 36.7324315,45.885271 C36.4103813,46.4272569 35.8995333,46.6982499 35.2007291,46.6982499 L34.8472593,46.6982499 Z" id="Fill-45" fill="#0D0D0C"></path>
                <path d="M48.1626351,45.3312223 C48.9952528,45.3312223 49.4121228,44.8363656 49.4121228,43.8466521 L49.4121228,37.5066513 L50.7785922,37.5066513 L50.7785922,43.8230875 C50.7785922,44.7106877 50.5409819,45.4136984 50.0657614,45.9324002 C49.5902603,46.450541 48.952051,46.7100322 48.1508528,46.7100322 L45.0279751,46.6982499 L45.0279751,45.3312223 L48.1626351,45.3312223 Z M45.3696626,38.8147674 L45.853299,38.8147674 C45.7192049,38.65767 45.6527189,38.4730806 45.6527189,38.2607186 C45.6527189,38.0017885 45.7469776,37.7818522 45.9357753,37.6011902 C46.124012,37.4205283 46.3557311,37.3301973 46.6309326,37.3301973 C46.9372731,37.3301973 47.2040586,37.4558752 47.4321308,37.707231 L47.0668787,38.0724823 C46.94092,37.9465239 46.7998126,37.883685 46.6427149,37.883685 C46.5167562,37.883685 46.4087516,37.9271673 46.3184204,38.0135708 C46.2280892,38.0999744 46.1832042,38.2060151 46.1832042,38.331693 C46.1832042,38.4652258 46.2280892,38.5788408 46.3184204,38.6733798 C46.4087516,38.7679187 46.5167562,38.8147674 46.6427149,38.8147674 L47.5496736,38.8147674 L47.5496736,39.3805984 L45.3696626,39.3805984 L45.3696626,38.8147674 Z M45.6762836,44.7426682 L47.0550964,44.7426682 L47.0550964,39.8401082 L45.6762836,39.8401082 L45.6762836,44.7426682 Z" id="Fill-46" fill="#0D0D0C"></path>
                <polygon id="Fill-47" fill="#0D0D0C" points="52.6051894 46.6981096 53.9840022 46.6981096 53.9840022 37.506511 52.6051894 37.506511"></polygon>
                <path d="M59.4397806,41.6665054 C60.0131871,41.0931 60.704417,40.8061168 61.5140312,40.8061168 L64.3420701,40.8061168 L64.3420701,44.2942394 C64.3420701,44.9857483 64.6169911,45.331082 65.166833,45.331082 L65.5203028,45.331082 L65.5203028,46.6983901 L65.166833,46.6983901 C64.3891994,46.6983901 63.8508593,46.3645582 63.5523737,45.6966139 C63.0732257,46.3645582 62.3934977,46.6983901 61.5140312,46.6983901 C60.6962816,46.6983901 60.0014048,46.4116874 59.4279982,45.8382821 C58.8545917,45.2645961 58.5676079,44.5733677 58.5676079,43.7643163 C58.5676079,42.9471295 58.8582386,42.2480462 59.4397806,41.6665054 M59.8757267,39.4396502 C59.8757267,39.2270077 59.9523118,39.0446626 60.1057626,38.8912121 C60.2586523,38.7383227 60.4415589,38.6614572 60.6533602,38.6614572 C60.873297,38.6614572 61.0598505,38.7383227 61.2133013,38.8912121 C61.3664715,39.0446626 61.4433372,39.2270077 61.4433372,39.4396502 C61.4433372,39.659306 61.3664715,39.8441759 61.2133013,39.9931379 C61.0598505,40.1423804 60.873297,40.2170017 60.6533602,40.2170017 C60.4415589,40.2170017 60.2586523,40.1423804 60.1057626,39.9931379 C59.9523118,39.8441759 59.8757267,39.659306 59.8757267,39.4396502 M59.9464206,43.7522535 C59.9464206,44.1842712 60.0998714,44.5554137 60.4062119,44.8659616 C60.7122719,45.1762289 61.081732,45.331082 61.5140312,45.331082 C61.929779,45.331082 62.2756744,45.1860475 62.5508759,44.8954173 C62.8255163,44.6047872 62.9632573,44.2235456 62.9632573,43.7522535 L62.9632573,42.1731444 L61.5140312,42.1731444 C61.081732,42.1731444 60.7122719,42.328278 60.4062119,42.6388259 C60.0998714,42.9488126 59.9464206,43.3205162 59.9464206,43.7522535 M61.9732614,39.4396502 C61.9732614,39.2270077 62.0478828,39.0446626 62.1974061,38.8912121 C62.3463684,38.7383227 62.5309582,38.6614572 62.7508949,38.6614572 C62.9632573,38.6614572 63.1456029,38.7383227 63.2990537,38.8912121 C63.4522239,39.0446626 63.528809,39.2270077 63.528809,39.4396502 C63.528809,39.659306 63.4522239,39.8441759 63.2990537,39.9931379 C63.1456029,40.1423804 62.9632573,40.2170017 62.7508949,40.2170017 C62.5309582,40.2170017 62.3463684,40.1423804 62.1974061,39.9931379 C62.0478828,39.8441759 61.9732614,39.659306 61.9732614,39.4396502" id="Fill-48" fill="#0D0D0C"></path>
                <polygon id="Fill-49" fill="#0D0D0C" points="65.2849368 46.6981096 69.9984286 46.6981096 69.9984286 45.3313625 65.2849368 45.3313625"></polygon>
                <polygon id="Fill-50" fill="#0D0D0C" points="69.762782 46.6981096 74.4762738 46.6981096 74.4762738 45.3313625 69.762782 45.3313625"></polygon>
                <polygon id="Fill-51" fill="#0D0D0C" points="74.2403467 46.6981096 78.9538385 46.6981096 78.9538385 45.3313625 74.2403467 45.3313625"></polygon>
                <polygon id="Fill-52" fill="#0D0D0C" points="78.718192 46.6981096 83.4316838 46.6981096 83.4316838 45.3313625 78.718192 45.3313625"></polygon>
                <path d="M83.1960653,45.3312223 L83.9619165,45.3312223 C84.237118,45.3312223 84.4466751,45.2389276 84.5928321,45.0543381 C84.7375864,44.8700293 84.8105246,44.6164292 84.8105246,44.2940991 L84.8105246,40.8059765 L86.1893373,40.8059765 L86.1893373,44.2940991 C86.1893373,45.0097337 85.9845493,45.5887497 85.5760953,46.0322693 C85.1679218,46.4763498 84.6295817,46.6982499 83.9619165,46.6982499 L83.1960653,46.6982499 L83.1960653,45.3312223 Z M83.6676389,48.3598351 C83.6676389,48.1477536 83.7419797,47.9651279 83.8915031,47.8116775 C84.0404654,47.6587881 84.2250551,47.5819226 84.4449919,47.5819226 C84.6494994,47.5819226 84.8298812,47.6587881 84.98754,47.8116775 C85.1443572,47.9651279 85.222906,48.1477536 85.222906,48.3598351 C85.222906,48.5719165 85.1443572,48.7565059 84.98754,48.9136033 C84.8298812,49.0707006 84.6494994,49.1492493 84.4449919,49.1492493 C84.2331906,49.1492493 84.0505645,49.0707006 83.8973942,48.9136033 C83.7439435,48.7565059 83.6676389,48.5719165 83.6676389,48.3598351 L83.6676389,48.3598351 Z M85.9887572,47.8175686 C86.1380001,47.6604712 86.3189429,47.5819226 86.5310248,47.5819226 C86.7433872,47.5819226 86.9276965,47.6587881 87.0847942,47.8116775 C87.2421724,47.9651279 87.3201602,48.1477536 87.3201602,48.3598351 C87.3201602,48.5719165 87.2421724,48.7565059 87.0847942,48.9136033 C86.9276965,49.0707006 86.7433872,49.1492493 86.5310248,49.1492493 C86.3189429,49.1492493 86.1360363,49.0707006 85.9831466,48.9136033 C85.8299764,48.7565059 85.7531107,48.5719165 85.7531107,48.3598351 C85.7531107,48.1477536 85.8319401,47.9670916 85.9887572,47.8175686 L85.9887572,47.8175686 Z" id="Fill-53" fill="#0D0D0C"></path>
                <path d="M88.0270156,37.506483 L89.4058284,37.506483 L89.4058284,44.2939308 C89.4058284,44.9857203 89.6771024,45.3313345 90.2190895,45.3313345 L90.5133671,45.3313345 L90.5133671,46.6983621 L90.2190895,46.6983621 C89.5589986,46.6983621 89.0287939,46.4764621 88.6284754,46.032662 C88.2275957,45.5888619 88.0270156,45.0092849 88.0270156,44.2939308 L88.0270156,37.506483 Z" id="Fill-54" fill="#0D0D0C"></path>
                <path d="M90.2781414,45.3312223 L92.0222063,45.3312223 C91.4482386,44.8759204 91.1618159,44.2705345 91.1618159,43.5164671 C91.1618159,42.7231254 91.4291625,42.0728546 91.9630141,41.5664961 C92.4971462,41.0595765 93.1729468,40.8059765 93.9898548,40.8059765 C94.8224726,40.8059765 95.5336202,41.0890323 96.1227365,41.6548634 L95.3686676,42.7152706 C94.9596525,42.3539466 94.523987,42.1730041 94.0605488,42.1730041 C93.6206753,42.1730041 93.2475682,42.3185997 92.9412278,42.6092299 C92.6346067,42.89986 92.481717,43.2611839 92.481717,43.6934822 C92.481717,44.1333548 92.6365704,44.5162797 92.9471189,44.8422567 C93.2576674,45.1682337 93.6288107,45.3312223 94.0605488,45.3312223 L96.4764868,45.3312223 L96.4764868,46.6982499 L90.2781414,46.6982499 L90.2781414,45.3312223 Z" id="Fill-55" fill="#0D0D0C"></path>
                <path d="M96.5585984,47.9828294 C96.723551,48.037533 96.8772823,48.0653055 97.0183897,48.0653055 C97.7884489,48.0653055 98.1727772,47.6094427 98.1727772,46.6982779 L98.1727772,40.8060046 L99.5518705,40.7942223 L99.5518705,45.3312503 L100.730103,45.3312503 L100.730103,46.6982779 L99.5518705,46.6982779 L99.5518705,46.9810532 C99.5518705,47.7037011 99.347363,48.2888888 98.9386285,48.7368968 C98.530455,49.1846243 97.9020642,49.4087686 97.0537367,49.4087686 C96.7395413,49.4087686 96.4486301,49.3613588 96.181564,49.2671004 L96.5585984,47.9828294 Z" id="Fill-56" fill="#0D0D0C"></path>
                <path d="M100.494793,45.3312223 L100.824698,45.3312223 C101.366405,45.3312223 101.637398,44.9861691 101.637398,44.2940991 L101.637398,37.5066513 L103.016211,37.5066513 L103.016211,44.2940991 C103.016211,45.0097337 102.815631,45.5887497 102.415593,46.0322693 C102.014713,46.4763498 101.483948,46.6982499 100.824698,46.6982499 L100.494793,46.6982499 L100.494793,45.3312223 Z" id="Fill-57" fill="#0D0D0C"></path>
                <polygon id="Fill-58" fill="#0D0D0C" points="104.842416 46.6981096 106.221229 46.6981096 106.221229 37.506511 104.842416 37.506511"></polygon>
                <path d="M111.677147,41.6665054 C112.250554,41.0931 112.942064,40.8061168 113.751398,40.8061168 L116.579437,40.8061168 L116.579437,44.2942394 C116.579437,44.9857483 116.854358,45.331082 117.4042,45.331082 L117.757669,45.331082 L117.757669,46.6983901 L117.4042,46.6983901 C116.626566,46.6983901 116.088506,46.3645582 115.78974,45.6966139 C115.310592,46.3645582 114.630864,46.6983901 113.751398,46.6983901 C112.933929,46.6983901 112.238771,46.4116874 111.665365,45.8382821 C111.091958,45.2645961 110.804974,44.5733677 110.804974,43.7643163 C110.804974,42.9471295 111.095605,42.2480462 111.677147,41.6665054 M112.113093,39.4396502 C112.113093,39.2270077 112.189678,39.0446626 112.343129,38.8912121 C112.496019,38.7383227 112.678925,38.6614572 112.890727,38.6614572 C113.110664,38.6614572 113.297217,38.7383227 113.450668,38.8912121 C113.603838,39.0446626 113.680704,39.2270077 113.680704,39.4396502 C113.680704,39.659306 113.603838,39.8441759 113.450668,39.9931379 C113.297217,40.1423804 113.110664,40.2170017 112.890727,40.2170017 C112.678925,40.2170017 112.496019,40.1423804 112.343129,39.9931379 C112.189678,39.8441759 112.113093,39.659306 112.113093,39.4396502 M112.183787,43.7522535 C112.183787,44.1842712 112.337238,44.5554137 112.643578,44.8659616 C112.949638,45.1762289 113.319099,45.331082 113.751398,45.331082 C114.167146,45.331082 114.513041,45.1860475 114.788242,44.8954173 C115.063163,44.6047872 115.200624,44.2235456 115.200624,43.7522535 L115.200624,42.1731444 L113.751398,42.1731444 C113.319099,42.1731444 112.949638,42.328278 112.643578,42.6388259 C112.337238,42.9488126 112.183787,43.3205162 112.183787,43.7522535 M114.210628,39.4396502 C114.210628,39.2270077 114.285249,39.0446626 114.434773,38.8912121 C114.583735,38.7383227 114.768605,38.6614572 114.988542,38.6614572 C115.200624,38.6614572 115.382969,38.7383227 115.53642,38.8912121 C115.68959,39.0446626 115.766176,39.2270077 115.766176,39.4396502 C115.766176,39.659306 115.68959,39.8441759 115.53642,39.9931379 C115.382969,40.1423804 115.200624,40.2170017 114.988542,40.2170017 C114.768605,40.2170017 114.583735,40.1423804 114.434773,39.9931379 C114.285249,39.8441759 114.210628,39.659306 114.210628,39.4396502" id="Fill-59" fill="#0D0D0C"></path>
                <polygon id="Fill-60" fill="#0D0D0C" points="117.522163 46.6981096 122.235935 46.6981096 122.235935 45.3313625 117.522163 45.3313625"></polygon>
                <polygon id="Fill-61" fill="#0D0D0C" points="122.000008 46.6981096 126.7135 46.6981096 126.7135 45.3313625 122.000008 45.3313625"></polygon>
                <polygon id="Fill-62" fill="#0D0D0C" points="126.478415 46.6981096 131.191906 46.6981096 131.191906 45.3313625 126.478415 45.3313625"></polygon>
                <polygon id="Fill-63" fill="#0D0D0C" points="130.955979 46.6981096 135.669471 46.6981096 135.669471 45.3313625 130.955979 45.3313625"></polygon>
                <path d="M135.433572,45.3312223 L135.763477,45.3312223 C136.305184,45.3312223 136.576738,44.9861691 136.576738,44.2940991 L136.576738,40.8059765 L137.955271,40.8059765 L137.955271,44.2940991 C137.955271,44.9861691 138.230192,45.3312223 138.780314,45.3312223 L139.109939,45.3312223 L139.109939,46.6982499 L138.780314,46.6982499 C138.112368,46.6982499 137.609656,46.4468941 137.271896,45.944463 C136.918426,46.4468941 136.415433,46.6982499 135.763477,46.6982499 L135.433572,46.6982499 L135.433572,45.3312223 Z M136.611805,39.6513109 C136.478552,39.4942135 136.411505,39.3135515 136.411505,39.109325 C136.411505,38.8422594 136.506044,38.6200789 136.694281,38.4436249 C136.883079,38.2666098 137.114517,38.1782425 137.389719,38.1782425 C137.711769,38.1782425 137.982482,38.299993 138.202699,38.5437744 L137.825104,38.9090258 C137.723551,38.7914833 137.586091,38.7322913 137.413284,38.7322913 C137.279751,38.7322913 137.169221,38.7754931 137.083098,38.8618966 C136.996694,38.9483002 136.953492,39.0546214 136.953492,39.1800188 C136.953492,39.3135515 136.998938,39.4257639 137.088709,39.5158144 C137.179601,39.6064259 137.287044,39.6513109 137.413284,39.6513109 L138.320803,39.6513109 L138.320803,40.2171419 L136.12901,40.2171419 L136.12901,39.6513109 L136.611805,39.6513109 Z" id="Fill-64" fill="#0D0D0C"></path>
                <path d="M138.803794,45.3312223 L139.651841,45.3312223 C139.919188,45.3312223 140.123135,45.2389276 140.265084,45.0543381 C140.40591,44.8700293 140.476885,44.6164292 140.476885,44.2940991 L140.476885,40.8183199 L141.843635,40.8059765 L141.843635,44.2940991 C141.843635,44.6164292 141.914609,44.8700293 142.056278,45.0543381 C142.197385,45.2389276 142.40554,45.3312223 142.680461,45.3312223 L143.540851,45.3312223 L143.540851,46.6982499 L142.680461,46.6982499 C142.020931,46.6982499 141.51373,46.4468941 141.159979,45.944463 C140.807071,46.4468941 140.304077,46.6982499 139.651841,46.6982499 L138.803794,46.6982499 L138.803794,45.3312223 Z M139.569365,47.8175686 C139.718889,47.6604712 139.903478,47.5819226 140.123135,47.5819226 C140.335216,47.5819226 140.517843,47.6587881 140.671293,47.8116775 C140.824464,47.9651279 140.90161,48.1477536 140.90161,48.3598351 C140.90161,48.5719165 140.826147,48.7565059 140.677465,48.9136033 C140.519806,49.0707006 140.335216,49.1492493 140.123135,49.1492493 C139.911333,49.1492493 139.728707,49.0707006 139.575256,48.9136033 C139.422086,48.7565059 139.345782,48.5719165 139.345782,48.3598351 C139.345782,48.1477536 139.420122,47.9670916 139.569365,47.8175686 L139.569365,47.8175686 Z M141.443036,48.3598351 C141.443036,48.1477536 141.517938,47.9651279 141.66718,47.8116775 C141.816143,47.6587881 142.000732,47.5819226 142.22095,47.5819226 C142.424896,47.5819226 142.605839,47.6587881 142.762937,47.8116775 C142.920315,47.9651279 142.998583,48.1477536 142.998583,48.3598351 C142.998583,48.5719165 142.920315,48.7565059 142.762937,48.9136033 C142.605839,49.0707006 142.424896,49.1492493 142.22095,49.1492493 C142.009148,49.1492493 141.825961,49.0707006 141.673352,48.9136033 C141.519901,48.7565059 141.443036,48.5719165 141.443036,48.3598351 L141.443036,48.3598351 Z" id="Fill-65" fill="#0D0D0C"></path>
                <path d="M143.305457,46.6982499 L143.305457,45.3312223 L144.506974,45.3312223 C144.216623,45.0641567 144.071028,44.7263974 144.071028,44.3176637 C144.071028,43.8230875 144.23037,43.3812512 144.548492,42.9924352 C144.866335,42.6036192 145.265251,42.3693758 145.744679,42.2911077 C145.95648,41.7648315 146.296485,41.3364607 146.76357,41.0065562 C147.231216,40.6766517 147.759457,40.5116995 148.349134,40.5116995 C149.166042,40.5116995 149.837074,40.7984022 150.363632,41.3718076 C150.889909,41.9452129 151.153609,42.6681414 151.153609,43.5400317 L151.153609,46.6982499 L143.305457,46.6982499 Z M145.120216,44.3176637 C145.120216,44.6007195 145.218121,44.8405735 145.415054,45.0366647 C145.610865,45.2330364 145.850439,45.3312223 146.133496,45.3312223 C146.408697,45.3312223 146.645747,45.2330364 146.846327,45.0366647 C147.046626,44.8405735 147.146495,44.6007195 147.146495,44.3176637 C147.146495,44.0511593 147.044662,43.8152327 146.840716,43.6107256 C146.635928,43.406499 146.400001,43.3043857 146.133496,43.3043857 C145.850439,43.3043857 145.610865,43.4048158 145.415054,43.6048344 C145.218121,43.8051336 145.120216,44.0430239 145.120216,44.3176637 L145.120216,44.3176637 Z M147.064019,42.7152706 C147.38663,42.8252387 147.65566,43.0294653 147.871108,43.3282308 C148.087679,43.6264353 148.195684,43.9566203 148.195684,44.3176637 C148.195684,44.718262 148.04588,45.0565824 147.747955,45.3312223 L149.786859,45.3312223 L149.786859,43.5400317 C149.786859,43.045175 149.652484,42.6465405 149.385979,42.344128 C149.118632,42.0417156 148.773018,41.8905094 148.349134,41.8905094 C148.066078,41.8905094 147.810794,41.9670944 147.583003,42.1199838 C147.355211,42.2734342 147.182123,42.4717697 147.064019,42.7152706 L147.064019,42.7152706 Z" id="Fill-66" fill="#0D0D0C"></path>
            </g>
        </g>
    </g>
</svg>